<svg id="svg" version="1.1" xmlns="http://www.w3.org/2000/svg" xmlns:xlink="http://www.w3.org/1999/xlink" width="400" height="380.1857585139319" viewBox="0, 0, 400,380.1857585139319"><g id="svgg"><path id="path0" d="M225.948 0.866 C 221.436 3.222,220.008 6.037,219.444 13.688 C 219.053 18.982,217.299 28.642,215.956 32.890 C 204.556 68.958,188.484 94.742,169.582 107.285 C 158.280 114.785,156.512 115.663,144.081 119.961 C 141.454 120.869,138.630 121.730,137.808 121.875 C 136.985 122.019,135.036 122.471,133.477 122.879 C 102.658 130.935,69.908 121.304,58.263 100.760 C 57.848 100.029,56.804 98.196,55.943 96.689 C 54.007 93.300,52.500 89.546,51.004 84.384 C 49.561 79.405,46.886 68.428,46.563 66.160 C 46.429 65.219,46.077 63.212,45.781 61.700 C 45.486 60.188,44.724 55.140,44.089 50.483 C 42.689 40.218,42.257 38.466,40.493 35.906 C 35.241 28.279,23.611 29.182,19.525 37.535 C 17.476 41.722,18.044 48.788,22.422 73.574 C 23.176 77.844,24.717 85.100,25.248 86.882 C 25.560 87.928,26.173 90.152,26.611 91.825 C 34.178 120.721,59.691 143.484,90.684 148.989 C 95.012 149.758,95.648 149.842,101.331 150.394 C 112.442 151.474,126.914 150.400,137.208 147.733 C 146.881 145.226,164.970 136.777,174.403 130.359 C 175.277 129.764,176.101 129.278,176.234 129.278 C 176.860 129.278,184.101 123.538,188.836 119.289 C 199.244 109.950,205.056 102.703,215.779 85.696 C 218.137 81.957,218.094 80.802,217.015 118.821 C 216.772 127.395,216.565 152.034,216.556 173.574 C 216.544 204.093,216.435 212.920,216.067 213.564 C 215.806 214.019,212.384 217.199,208.462 220.631 C 192.517 234.583,167.188 259.814,157.987 270.913 C 145.258 286.266,136.160 302.338,133.342 314.449 C 132.165 319.505,131.952 320.829,131.590 325.356 C 129.001 357.707,148.253 377.410,177.980 372.833 C 202.556 369.049,223.818 344.812,238.202 304.183 C 240.044 298.981,242.193 285.470,242.202 279.040 C 242.204 277.655,242.565 274.406,243.004 271.821 C 243.871 266.712,243.869 262.662,242.992 248.479 C 242.488 240.336,242.304 219.943,242.723 218.724 C 242.886 218.252,247.156 214.343,252.213 210.035 C 257.269 205.728,261.835 201.832,262.357 201.376 C 264.620 199.403,273.779 191.725,275.111 190.684 C 275.914 190.057,278.463 187.932,280.776 185.961 C 290.840 177.387,300.412 170.238,301.592 170.412 C 302.071 170.483,303.178 171.553,304.274 173.004 C 310.926 181.813,317.279 183.433,322.501 177.652 C 326.461 173.269,325.957 168.846,320.679 161.684 C 317.649 157.573,317.543 158.115,322.111 154.335 C 331.049 146.940,340.263 138.696,355.694 124.287 C 359.076 121.130,360.047 120.368,362.583 118.882 C 371.406 113.711,371.812 103.049,363.333 99.198 C 358.663 97.077,354.594 98.580,349.180 104.428 C 339.593 114.781,308.338 142.519,306.690 142.138 C 306.399 142.070,304.949 140.444,303.468 138.523 C 298.162 131.643,292.477 129.969,287.558 133.839 C 282.619 137.724,282.536 142.865,287.300 149.865 C 288.848 152.140,290.114 154.239,290.114 154.529 C 290.114 155.122,283.224 160.296,274.905 165.951 C 266.975 171.341,257.160 178.976,248.289 186.654 C 244.055 190.319,243.465 190.619,243.183 189.259 C 242.471 185.833,242.300 105.572,242.957 83.313 C 243.723 57.387,243.852 45.577,243.403 42.776 C 242.932 39.844,242.384 30.999,241.860 17.871 C 241.473 8.169,241.015 6.218,238.482 3.481 C 235.260 -0.002,229.795 -1.142,225.948 0.866 M216.528 241.806 C 216.651 242.005,216.912 245.385,217.107 249.316 C 217.645 260.127,218.256 266.754,219.052 270.433 C 220.199 275.728,219.915 283.530,218.253 292.395 C 218.038 293.546,217.531 296.711,217.126 299.430 C 215.128 312.865,203.596 333.049,193.196 341.310 C 175.562 355.320,154.494 352.256,151.500 335.247 C 147.826 314.368,163.042 289.128,198.861 256.688 C 201.265 254.510,204.943 251.159,207.034 249.240 C 215.612 241.370,216.048 241.029,216.528 241.806 " stroke="none" fill="#070707" fill-rule="evenodd"></path><path id="path1" d="M0.000 190.114 L 0.000 380.228 200.000 380.228 L 400.000 380.228 400.000 190.114 L 400.000 0.000 317.966 0.008 C 236.482 0.017,235.938 0.022,236.882 0.760 C 237.405 1.169,237.938 1.508,238.067 1.512 C 238.196 1.517,238.926 2.323,239.690 3.303 C 242.141 6.449,242.512 8.460,242.956 21.011 C 243.172 27.126,243.644 35.295,244.005 39.163 C 244.870 48.431,244.873 48.116,243.316 108.935 C 243.036 119.901,243.037 126.611,243.322 131.559 C 243.544 135.428,243.726 143.912,243.726 150.413 C 243.726 174.063,244.152 188.596,244.833 188.225 C 245.165 188.044,246.964 186.585,248.830 184.982 C 252.726 181.635,257.825 177.488,263.089 173.384 C 268.358 169.277,268.752 168.991,275.665 164.257 C 283.757 158.717,288.973 154.826,288.973 154.331 C 288.973 154.116,287.834 152.305,286.441 150.307 C 281.650 143.435,281.585 137.954,286.244 133.754 C 292.045 128.524,298.641 130.301,304.790 138.752 C 305.715 140.024,306.660 141.065,306.889 141.065 C 307.595 141.065,316.188 134.006,323.755 127.210 C 325.632 125.524,327.363 123.973,327.601 123.764 C 327.840 123.555,329.306 122.186,330.859 120.722 C 332.412 119.259,335.900 116.008,338.610 113.498 C 343.684 108.798,345.924 106.573,350.190 101.993 C 354.583 97.277,359.398 96.158,364.436 98.682 C 373.204 103.074,372.301 114.453,362.756 119.835 C 360.977 120.838,355.246 125.648,353.244 127.818 C 350.144 131.177,327.814 151.039,322.166 155.461 C 318.829 158.072,318.841 157.615,321.992 161.984 C 327.874 170.139,327.085 177.468,319.962 180.841 C 314.538 183.410,309.586 181.504,304.574 174.919 C 301.408 170.761,301.592 170.844,299.283 172.525 C 294.238 176.199,289.719 179.729,284.719 183.902 C 281.726 186.400,277.823 189.624,276.046 191.066 C 274.268 192.508,268.194 197.641,262.548 202.472 C 256.901 207.304,250.485 212.770,248.289 214.620 C 246.093 216.469,244.089 218.342,243.835 218.782 C 242.933 220.344,243.299 241.594,244.523 258.745 C 244.898 264.012,244.871 265.390,244.322 269.011 C 243.973 271.312,243.520 275.333,243.315 277.947 C 242.357 290.145,240.557 302.043,239.492 303.213 C 239.311 303.412,239.163 303.806,239.163 304.089 C 239.163 305.341,232.665 320.906,229.838 326.426 C 224.887 336.090,217.480 347.411,212.244 353.312 C 211.634 354.000,210.222 355.589,209.106 356.844 C 193.090 374.857,165.579 379.899,147.357 368.159 C 131.670 358.053,125.977 332.789,134.011 308.935 C 140.313 290.227,152.604 273.639,181.230 245.211 C 197.992 228.566,200.605 226.100,210.123 217.950 C 215.068 213.715,215.115 213.659,215.431 211.686 C 215.606 210.592,215.762 190.276,215.778 166.540 C 215.796 139.828,215.994 117.734,216.298 108.555 C 216.567 100.399,216.732 92.101,216.664 90.114 L 216.540 86.502 214.304 89.924 C 210.754 95.356,206.498 101.582,206.117 101.901 C 205.992 102.006,204.872 103.460,203.627 105.133 C 200.140 109.822,189.334 120.474,182.510 125.949 C 175.448 131.614,161.426 139.437,149.620 144.297 C 147.738 145.072,145.488 146.023,144.622 146.410 C 142.320 147.439,133.373 149.702,129.848 150.147 C 128.175 150.358,125.181 150.754,123.194 151.026 C 118.511 151.668,101.586 151.684,97.719 151.050 C 96.150 150.793,93.584 150.397,92.015 150.170 C 83.823 148.983,70.067 143.954,61.453 138.996 C 55.581 135.617,51.900 132.774,46.348 127.330 C 38.808 119.939,34.002 112.787,28.938 101.426 C 27.505 98.212,25.088 90.396,23.498 83.840 C 22.495 79.706,19.113 60.095,18.285 53.612 C 18.084 52.044,17.706 49.081,17.444 47.029 C 16.125 36.689,21.367 29.848,30.608 29.848 C 40.518 29.848,43.183 34.305,45.613 54.943 C 45.859 57.034,46.212 59.344,46.396 60.076 C 46.581 60.808,46.918 62.605,47.145 64.068 C 47.650 67.322,50.644 79.987,51.953 84.411 C 58.404 106.205,72.203 118.435,96.198 123.626 C 101.680 124.812,118.037 124.928,124.335 123.826 C 129.170 122.979,141.481 120.047,143.558 119.247 C 144.382 118.929,147.136 117.902,149.676 116.964 C 163.444 111.879,176.800 102.282,185.782 91.019 C 187.430 88.953,188.871 87.177,188.985 87.072 C 189.335 86.750,194.826 78.311,196.778 75.095 C 198.695 71.937,205.780 58.178,206.176 56.844 C 206.300 56.426,207.248 54.030,208.283 51.521 C 214.724 35.901,217.862 24.083,218.581 12.738 C 218.996 6.191,220.384 3.263,224.324 0.629 C 225.200 0.043,217.518 0.000,112.632 0.000 L 0.000 0.000 0.000 190.114 M212.323 245.692 C 182.772 272.476,172.990 282.768,163.233 297.338 C 154.487 310.399,150.686 323.649,152.434 334.981 C 155.013 351.710,176.395 354.175,193.726 339.741 C 202.706 332.263,214.811 310.954,215.994 300.544 C 216.187 298.844,216.604 296.187,216.921 294.639 C 218.648 286.208,219.311 276.694,218.469 272.433 C 218.138 270.760,217.699 268.451,217.492 267.300 C 217.074 264.971,215.970 249.036,215.970 245.338 C 215.970 242.385,215.972 242.384,212.323 245.692 " stroke="none" fill="#fbfbfb" fill-rule="evenodd"></path><path id="path2" d="M224.324 0.629 C 220.420 3.239,218.991 6.211,218.594 12.548 C 218.430 15.162,218.205 18.241,218.095 19.392 C 217.913 21.290,217.927 21.343,218.245 19.962 C 218.439 19.125,218.701 16.644,218.829 14.449 C 219.290 6.534,220.793 3.302,225.315 0.498 C 225.717 0.249,225.870 0.035,225.655 0.022 C 225.440 0.010,224.841 0.283,224.324 0.629 M236.696 1.239 C 240.804 3.923,241.758 6.465,242.221 15.970 C 242.952 30.976,243.436 39.049,243.715 40.875 C 244.164 43.818,244.178 41.053,243.736 36.612 C 243.532 34.565,243.186 27.719,242.967 21.400 C 242.522 8.569,242.143 6.413,239.817 3.473 C 238.511 1.823,236.135 -0.000,235.291 0.000 C 235.021 0.000,235.653 0.558,236.696 1.239 M217.150 23.764 C 215.266 32.779,211.713 43.687,207.332 53.910 C 206.590 55.642,206.065 57.143,206.166 57.244 C 206.504 57.581,211.592 44.741,213.934 37.643 C 215.539 32.777,217.962 22.958,217.768 22.104 C 217.691 21.762,217.413 22.510,217.150 23.764 M26.145 30.212 C 19.943 32.585,16.452 38.804,17.342 45.896 L 17.666 48.479 17.864 43.916 C 18.327 33.185,26.978 27.044,35.741 31.226 C 41.317 33.887,42.575 36.506,44.386 49.221 C 45.155 54.619,45.856 58.820,45.944 58.556 C 46.319 57.430,43.494 39.415,42.643 37.507 C 39.987 31.553,31.940 27.995,26.145 30.212 M244.213 53.802 L 244.223 64.449 244.533 56.274 C 244.703 51.778,244.698 46.987,244.523 45.627 C 244.300 43.905,244.206 46.381,244.213 53.802 M17.919 49.697 C 17.860 51.179,19.350 61.690,19.658 61.969 C 19.929 62.213,19.576 59.048,18.662 53.042 C 18.280 50.532,17.946 49.027,17.919 49.697 M202.543 64.350 C 198.797 71.848,190.622 85.545,188.982 87.072 C 188.870 87.177,187.430 88.953,185.782 91.019 C 176.800 102.282,163.444 111.879,149.676 116.964 C 147.136 117.902,144.382 118.929,143.558 119.247 C 141.481 120.047,129.170 122.979,124.335 123.826 C 121.111 124.390,118.335 124.525,109.923 124.525 C 104.193 124.525,100.172 124.643,100.988 124.788 C 115.399 127.345,144.812 121.376,159.886 112.834 C 179.621 101.651,192.917 86.333,204.556 61.374 C 207.238 55.623,205.956 57.518,202.543 64.350 M46.032 60.077 C 45.971 61.523,48.062 71.307,50.257 79.848 C 55.837 101.553,65.777 113.534,83.986 120.502 C 88.303 122.154,96.396 124.341,98.069 124.308 C 98.956 124.290,98.172 124.017,95.819 123.523 C 72.450 118.620,58.361 106.057,51.953 84.411 C 50.596 79.827,47.635 67.257,47.119 63.894 C 46.688 61.076,46.080 58.942,46.032 60.077 M19.823 63.118 C 19.795 63.989,20.382 67.468,22.390 78.327 C 24.065 87.379,28.711 102.974,29.500 102.186 C 29.597 102.089,29.336 101.213,28.919 100.240 C 26.655 94.958,23.811 83.978,21.864 73.004 C 20.110 63.111,19.862 61.908,19.823 63.118 M243.582 78.979 C 243.447 85.626,243.142 98.508,242.905 107.605 C 242.580 120.031,242.581 126.177,242.909 132.319 C 243.150 136.816,243.347 146.226,243.347 153.232 C 243.347 169.199,243.768 189.354,244.100 189.354 C 244.238 189.354,246.221 187.762,248.507 185.816 C 259.134 176.768,266.618 170.982,275.665 164.820 C 283.926 159.194,289.805 154.727,289.612 154.224 C 289.518 153.977,288.321 152.194,286.952 150.260 C 282.272 143.648,282.053 138.442,286.281 134.329 C 291.397 129.352,298.019 130.697,303.522 137.831 C 304.975 139.714,306.371 141.375,306.626 141.521 C 308.017 142.321,340.158 113.664,349.716 103.102 C 353.512 98.907,355.491 97.942,359.832 98.170 C 371.680 98.792,373.708 113.819,362.697 119.408 C 360.877 120.332,359.747 121.202,356.844 123.912 C 342.017 137.755,331.280 147.373,323.098 154.142 C 318.349 158.070,318.406 157.871,321.035 161.373 C 326.632 168.827,327.022 174.262,322.273 178.639 C 316.658 183.815,310.654 182.143,304.097 173.577 C 302.978 172.114,301.812 170.871,301.506 170.815 C 299.996 170.538,280.496 186.409,247.036 215.149 C 244.761 217.103,243.248 218.701,243.095 219.309 C 242.779 220.566,243.319 248.671,243.732 252.471 C 244.000 254.935,244.020 254.728,243.884 250.951 C 243.310 235.093,243.254 219.903,243.765 218.959 C 244.058 218.420,246.093 216.467,248.289 214.619 C 250.485 212.770,256.901 207.304,262.548 202.472 C 268.194 197.641,274.268 192.508,276.046 191.066 C 277.823 189.624,281.726 186.400,284.719 183.902 C 289.719 179.729,294.238 176.199,299.283 172.525 C 301.592 170.844,301.408 170.761,304.574 174.919 C 309.500 181.391,314.459 183.361,319.772 180.959 C 327.037 177.674,327.912 170.192,321.992 161.984 C 318.841 157.615,318.829 158.072,322.166 155.461 C 327.814 151.039,350.144 131.177,353.244 127.818 C 355.246 125.648,360.977 120.838,362.756 119.835 C 372.301 114.453,373.204 103.074,364.436 98.682 C 359.398 96.158,354.583 97.277,350.190 101.993 C 345.924 106.573,343.684 108.798,338.610 113.498 C 335.900 116.008,332.412 119.259,330.859 120.722 C 329.306 122.186,327.840 123.555,327.601 123.764 C 327.363 123.973,325.632 125.524,323.755 127.210 C 316.188 134.006,307.595 141.065,306.889 141.065 C 306.660 141.065,305.715 140.024,304.790 138.752 C 298.641 130.301,292.045 128.524,286.244 133.754 C 281.585 137.954,281.650 143.435,286.441 150.307 C 287.834 152.305,288.973 154.116,288.973 154.331 C 288.973 154.826,283.757 158.717,275.665 164.257 C 268.752 168.991,268.358 169.277,263.089 173.384 C 257.825 177.488,252.726 181.635,248.830 184.982 C 243.736 189.357,244.110 189.439,244.087 183.949 C 244.076 181.380,243.877 167.814,243.645 153.802 C 243.080 119.707,243.080 119.708,243.682 91.717 C 243.971 78.274,244.121 67.189,244.017 67.084 C 243.912 66.979,243.716 72.332,243.582 78.979 M216.208 85.965 C 215.850 86.470,214.261 88.935,212.678 91.445 C 197.957 114.771,179.086 131.090,154.645 141.629 C 146.437 145.168,146.002 145.369,146.178 145.545 C 146.332 145.698,150.451 144.053,154.753 142.120 C 164.041 137.946,176.880 130.466,182.510 125.949 C 189.334 120.474,200.140 109.822,203.627 105.133 C 204.872 103.460,205.992 102.006,206.117 101.901 C 206.498 101.582,210.754 95.356,214.304 89.924 L 216.540 86.502 216.661 90.494 C 216.727 92.690,216.598 100.646,216.375 108.175 C 216.152 115.703,215.996 124.087,216.029 126.806 C 216.112 133.542,216.597 121.021,217.031 100.951 C 217.363 85.602,217.299 84.428,216.208 85.965 M29.874 103.422 C 31.343 108.754,39.553 120.669,46.348 127.330 C 56.662 137.442,67.064 143.279,83.413 148.128 C 88.233 149.557,93.306 150.591,95.247 150.539 C 95.875 150.522,94.677 150.201,92.586 149.826 C 65.005 144.882,44.427 130.357,32.082 107.119 C 30.724 104.563,29.730 102.899,29.874 103.422 M215.738 170.152 C 215.761 191.274,215.639 209.700,215.467 211.098 L 215.154 213.642 210.143 217.932 C 200.602 226.103,197.999 228.558,181.230 245.211 C 152.604 273.639,140.313 290.227,134.011 308.935 C 128.555 325.134,129.452 342.996,136.398 356.464 C 146.398 375.854,176.433 380.462,198.289 365.960 C 202.267 363.320,206.579 359.687,209.106 356.844 C 210.222 355.589,211.634 354.000,212.244 353.312 C 217.480 347.411,224.887 336.090,229.838 326.426 C 233.061 320.132,239.343 304.836,239.024 304.055 C 238.887 303.720,238.836 303.721,238.813 304.058 C 238.753 304.958,231.846 321.555,230.066 325.076 C 226.795 331.549,225.369 333.979,220.684 341.065 C 214.849 349.889,208.871 357.117,204.183 361.019 C 178.556 382.343,143.124 376.911,134.231 350.293 C 127.300 329.544,131.013 309.225,145.921 286.336 C 149.685 280.556,154.675 273.988,160.237 267.490 C 168.676 257.632,201.962 225.139,212.478 216.494 C 213.719 215.473,214.960 214.297,215.236 213.878 C 216.178 212.450,216.427 197.265,216.054 163.878 L 215.696 131.749 215.738 170.152 M142.586 146.615 C 139.909 147.644,133.186 149.243,128.327 150.006 C 126.654 150.268,125.798 150.502,126.426 150.525 C 130.006 150.658,145.627 146.824,145.627 145.812 C 145.627 145.502,145.156 145.626,142.586 146.615 M97.909 151.040 C 99.986 151.609,120.534 151.604,122.814 151.034 C 124.274 150.668,123.996 150.645,120.913 150.873 C 116.318 151.213,105.563 151.218,100.380 150.882 C 97.150 150.672,96.678 150.702,97.909 151.040 M213.819 243.770 C 212.806 244.675,210.865 246.447,209.506 247.707 C 208.146 248.968,206.093 250.834,204.943 251.854 C 164.306 287.874,148.271 313.267,152.059 335.596 C 155.362 355.062,184.888 353.865,200.072 333.650 C 207.654 323.557,214.985 309.678,215.738 303.992 C 215.849 303.156,215.843 302.814,215.724 303.232 C 212.241 315.491,201.560 333.217,193.726 339.741 C 176.395 354.175,155.013 351.710,152.434 334.981 C 148.979 312.581,162.976 290.672,205.529 251.870 C 217.019 241.393,215.970 242.047,215.970 245.364 C 215.970 248.209,217.004 264.086,217.350 266.540 C 217.806 269.787,217.945 267.253,217.543 263.005 C 217.321 260.662,216.943 255.152,216.702 250.760 C 216.195 241.516,216.234 241.611,213.819 243.770 M244.216 262.738 C 244.211 268.581,244.255 269.078,244.584 266.814 C 244.828 265.135,244.830 262.814,244.591 260.160 L 244.223 256.084 244.216 262.738 M217.913 268.973 C 217.890 269.371,218.148 271.063,218.486 272.735 C 219.110 275.813,219.085 276.769,218.060 288.783 C 217.903 290.631,217.908 290.642,218.231 289.163 C 218.873 286.234,219.491 277.814,219.261 275.136 C 219.025 272.389,217.990 267.654,217.913 268.973 M243.405 272.433 C 243.145 274.106,242.767 277.871,242.564 280.798 C 242.112 287.317,240.902 296.118,239.903 300.156 C 239.494 301.811,239.242 303.247,239.342 303.348 C 240.194 304.199,242.609 288.917,243.145 279.278 C 243.273 276.977,243.559 274.136,243.781 272.964 C 244.002 271.792,244.114 270.509,244.030 270.112 C 243.945 269.716,243.664 270.760,243.405 272.433 M217.158 293.221 C 216.284 297.669,215.972 299.821,216.014 301.115 C 216.050 302.209,216.121 302.067,216.381 300.380 C 216.558 299.230,216.984 296.781,217.327 294.938 C 217.670 293.096,217.862 291.499,217.754 291.391 C 217.645 291.283,217.378 292.106,217.158 293.221 " stroke="none" fill="#a0a0a0" fill-rule="evenodd"></path><path id="path3" d="M233.840 0.163 C 233.840 0.253,234.632 0.722,235.600 1.206 C 237.786 2.298,239.691 4.480,240.663 7.005 C 241.071 8.067,241.414 8.630,241.425 8.257 C 241.460 7.062,239.651 3.987,238.075 2.564 C 236.272 0.935,233.840 -0.443,233.840 0.163 M223.948 1.667 C 222.111 2.924,219.748 6.338,219.786 7.681 C 219.793 7.953,220.233 7.279,220.762 6.185 C 221.649 4.352,222.987 2.792,224.905 1.355 C 226.129 0.437,225.394 0.677,223.948 1.667 M219.259 10.352 C 219.126 11.455,219.017 13.326,219.015 14.510 C 219.013 15.694,218.755 18.004,218.441 19.643 C 217.737 23.322,217.745 24.983,218.451 21.863 C 218.986 19.503,219.959 8.805,219.666 8.512 C 219.574 8.421,219.391 9.249,219.259 10.352 M241.730 13.878 C 241.816 16.597,241.946 18.992,242.016 19.202 C 242.274 19.962,242.108 11.185,241.843 10.076 C 241.694 9.449,241.643 11.160,241.730 13.878 M242.436 29.658 C 242.535 33.317,242.799 37.595,243.021 39.163 C 243.244 40.732,243.546 46.464,243.694 51.901 L 243.961 61.787 244.034 53.501 C 244.082 48.058,243.910 43.558,243.533 40.383 C 243.217 37.726,242.801 32.728,242.607 29.278 L 242.255 23.004 242.436 29.658 M217.354 25.175 C 217.226 25.654,217.136 26.388,217.154 26.806 C 217.172 27.224,217.343 26.899,217.535 26.083 C 217.905 24.503,217.747 23.708,217.354 25.175 M216.214 30.291 C 215.870 31.685,215.663 32.900,215.754 32.991 C 215.918 33.155,216.430 31.397,216.919 28.992 C 217.377 26.742,216.850 27.712,216.214 30.291 M27.376 30.558 C 21.234 32.344,18.144 36.692,18.017 43.726 L 17.946 47.719 18.209 43.702 C 19.263 27.633,39.399 25.623,42.719 41.255 C 43.050 42.813,43.295 43.444,43.311 42.776 C 43.490 35.179,34.690 28.432,27.376 30.558 M214.684 35.689 C 214.317 36.996,213.088 40.565,211.952 43.621 C 210.816 46.677,209.947 49.237,210.021 49.311 C 210.380 49.670,215.733 34.462,215.497 33.754 C 215.416 33.512,215.050 34.383,214.684 35.689 M43.418 44.867 C 43.409 45.390,43.539 46.587,43.707 47.529 C 43.935 48.812,44.018 48.954,44.037 48.099 C 44.051 47.471,43.921 46.274,43.748 45.437 C 43.551 44.485,43.428 44.272,43.418 44.867 M18.295 48.494 C 18.235 49.550,19.412 57.937,19.653 58.175 C 19.870 58.389,19.519 55.300,18.812 50.760 C 18.551 49.087,18.319 48.068,18.295 48.494 M44.154 50.205 C 44.083 51.084,45.285 59.477,45.514 59.696 C 45.623 59.800,45.591 58.859,45.443 57.605 C 45.062 54.390,44.212 49.505,44.154 50.205 M208.251 53.120 C 207.510 54.959,206.618 57.148,206.268 57.985 C 205.919 58.821,205.791 59.335,205.983 59.125 C 206.525 58.538,209.996 50.174,209.785 49.963 C 209.683 49.860,208.992 51.281,208.251 53.120 M19.821 59.316 C 19.750 60.539,21.415 70.546,21.598 69.997 C 21.674 69.770,21.385 67.487,20.956 64.925 C 20.527 62.362,20.109 59.838,20.026 59.316 L 19.875 58.365 19.821 59.316 M204.617 61.461 C 204.150 62.423,203.857 63.299,203.965 63.408 C 204.074 63.517,204.514 62.787,204.943 61.787 C 205.953 59.430,205.718 59.195,204.617 61.461 M45.710 60.837 C 45.706 61.359,45.840 62.215,46.008 62.738 C 46.417 64.016,46.417 62.635,46.008 61.027 C 45.747 60.002,45.717 59.983,45.710 60.837 M243.253 72.053 C 242.699 91.008,242.133 119.363,242.299 119.847 C 242.392 120.119,242.581 115.722,242.717 110.076 C 242.854 104.430,243.155 92.025,243.387 82.510 C 243.619 72.994,243.746 64.610,243.670 63.878 C 243.593 63.146,243.406 66.825,243.253 72.053 M46.417 64.928 C 46.382 65.947,47.849 72.699,48.169 72.991 C 48.415 73.217,48.211 72.069,47.159 67.300 C 46.767 65.523,46.433 64.455,46.417 64.928 M199.818 70.806 C 188.509 91.578,175.799 104.811,158.634 113.686 C 157.318 114.366,156.319 115.001,156.414 115.096 C 156.759 115.441,160.708 113.103,169.011 107.637 C 180.974 99.762,190.120 88.997,200.162 70.971 C 201.775 68.075,203.022 65.633,202.933 65.544 C 202.844 65.455,201.442 67.823,199.818 70.806 M21.756 71.293 C 21.760 71.711,21.894 72.567,22.053 73.194 C 22.314 74.219,22.344 74.238,22.351 73.384 C 22.354 72.861,22.221 72.006,22.053 71.483 C 21.815 70.738,21.750 70.697,21.756 71.293 M48.342 73.954 C 48.342 74.373,48.489 75.057,48.669 75.475 L 48.996 76.236 48.996 75.475 C 48.996 75.057,48.849 74.373,48.669 73.954 L 48.342 73.194 48.342 73.954 M22.463 75.339 C 22.427 76.091,23.943 83.766,24.173 83.995 C 24.479 84.301,24.333 83.190,23.560 79.337 C 22.720 75.147,22.510 74.379,22.463 75.339 M49.076 76.774 C 49.038 77.539,51.073 85.001,51.203 84.574 C 51.262 84.379,50.814 82.424,50.207 80.228 C 49.600 78.032,49.091 76.478,49.076 76.774 M216.667 84.316 C 216.358 84.682,215.274 86.350,214.259 88.023 C 204.605 103.932,193.048 117.026,180.466 126.307 C 177.080 128.804,176.151 129.609,177.376 128.981 C 186.424 124.350,203.337 106.121,213.361 90.198 C 217.021 84.385,217.224 84.264,217.518 87.732 L 217.736 90.304 217.804 86.977 C 217.872 83.596,217.671 83.126,216.667 84.316 M24.335 84.562 C 24.335 85.301,26.407 92.453,26.521 92.110 C 26.593 91.893,26.196 90.114,25.637 88.158 C 24.697 84.865,24.335 83.864,24.335 84.562 M51.359 85.382 C 51.319 85.952,52.906 90.567,53.081 90.392 C 53.161 90.312,52.813 89.062,52.307 87.614 C 51.801 86.166,51.375 85.162,51.359 85.382 M53.232 91.089 C 53.232 91.628,56.643 98.221,57.457 99.256 C 57.861 99.770,57.134 98.137,55.840 95.627 C 53.295 90.690,53.232 90.581,53.232 91.089 M217.277 101.521 C 217.277 107.272,217.330 109.625,217.395 106.749 C 217.459 103.874,217.459 99.168,217.395 96.293 C 217.330 93.417,217.277 95.770,217.277 101.521 M26.669 93.156 C 26.669 93.470,26.816 94.068,26.996 94.487 C 27.202 94.966,27.323 95.036,27.323 94.677 C 27.323 94.363,27.176 93.764,26.996 93.346 C 26.790 92.867,26.669 92.796,26.669 93.156 M27.376 95.690 C 27.376 96.211,29.242 100.664,29.261 100.190 C 29.278 99.784,27.796 95.735,27.533 95.469 C 27.447 95.382,27.376 95.481,27.376 95.690 M358.080 98.374 C 358.760 98.458,359.872 98.458,360.551 98.374 C 361.231 98.290,360.675 98.221,359.316 98.221 C 357.956 98.221,357.400 98.290,358.080 98.374 M353.232 99.948 C 352.082 100.745,350.177 102.580,349.000 104.026 C 346.361 107.265,326.139 126.095,316.346 134.431 C 306.509 142.805,306.874 142.642,304.753 139.628 C 299.449 132.093,293.795 129.689,288.593 132.758 C 282.075 136.604,281.697 142.868,287.501 150.858 C 288.802 152.648,289.712 154.262,289.594 154.570 C 289.334 155.247,282.263 160.498,274.930 165.459 C 268.209 170.006,260.684 175.797,251.391 183.573 C 247.556 186.783,244.202 189.326,243.937 189.224 C 243.560 189.079,243.395 183.017,243.166 160.965 C 243.006 145.524,242.737 131.264,242.568 129.278 C 242.300 126.133,242.281 126.380,242.418 131.179 C 242.505 134.211,242.674 148.327,242.793 162.548 C 242.913 176.768,243.089 188.788,243.185 189.259 C 243.464 190.620,244.056 190.318,248.289 186.654 C 257.160 178.976,266.975 171.341,274.905 165.951 C 283.224 160.296,290.114 155.122,290.114 154.529 C 290.114 154.239,288.848 152.140,287.300 149.865 C 282.536 142.865,282.619 137.724,287.558 133.839 C 292.477 129.969,298.162 131.643,303.468 138.523 C 304.949 140.444,306.399 142.070,306.690 142.138 C 308.338 142.519,339.593 114.781,349.180 104.428 C 351.748 101.654,353.475 100.138,354.840 99.458 C 355.920 98.919,356.470 98.483,356.063 98.489 C 355.656 98.494,354.382 99.151,353.232 99.948 M363.333 99.198 C 371.812 103.049,371.406 113.711,362.583 118.882 C 360.047 120.368,359.076 121.130,355.694 124.287 C 340.263 138.696,331.049 146.940,322.111 154.335 C 317.624 158.048,317.719 157.739,320.090 160.875 C 322.513 164.080,323.917 166.337,324.536 168.019 C 324.814 168.774,325.054 169.084,325.068 168.707 C 325.108 167.688,324.154 165.999,321.213 161.886 C 318.025 157.428,317.589 158.540,324.905 152.461 C 332.279 146.334,346.583 133.445,358.555 122.141 C 359.287 121.450,361.238 120.078,362.891 119.093 C 368.754 115.595,370.995 110.841,369.366 105.356 C 368.473 102.348,364.450 98.450,362.278 98.487 C 362.008 98.492,362.483 98.812,363.333 99.198 M58.175 100.603 C 58.175 103.174,74.194 118.328,75.515 117.007 C 75.622 116.900,74.740 116.257,73.555 115.578 C 68.678 112.788,63.039 107.478,60.058 102.868 C 58.538 100.518,58.175 100.081,58.175 100.603 M29.795 102.023 C 30.458 103.610,31.524 105.591,31.544 105.274 C 31.567 104.912,29.627 100.760,29.435 100.760 C 29.343 100.760,29.505 101.329,29.795 102.023 M31.622 105.995 C 32.199 107.322,35.188 112.559,35.798 113.312 C 36.291 113.920,36.208 113.647,35.565 112.548 C 35.014 111.606,33.971 109.682,33.247 108.270 C 32.522 106.858,31.832 105.703,31.713 105.703 C 31.593 105.703,31.553 105.835,31.622 105.995 M216.815 117.715 C 216.768 120.662,216.655 125.710,216.564 128.932 L 216.397 134.791 216.756 129.468 C 216.953 126.540,217.066 121.492,217.007 118.251 L 216.899 112.357 216.815 117.715 M37.091 115.494 C 41.547 122.377,50.028 130.865,57.414 135.833 C 61.052 138.280,71.505 143.759,72.429 143.703 C 72.640 143.690,70.589 142.609,67.871 141.301 C 55.753 135.470,46.682 127.951,38.800 117.205 C 36.810 114.493,35.766 113.448,37.091 115.494 M153.422 116.151 C 152.376 116.644,151.778 117.053,152.091 117.061 C 152.405 117.069,153.432 116.664,154.373 116.160 C 156.565 114.986,155.909 114.980,153.422 116.151 M76.517 117.623 C 77.405 118.316,85.067 121.561,86.502 121.853 C 87.129 121.980,86.188 121.502,84.411 120.791 C 82.633 120.079,79.981 118.959,78.517 118.302 C 77.053 117.645,76.153 117.339,76.517 117.623 M148.179 118.131 C 146.759 118.668,145.668 119.179,145.754 119.265 C 145.912 119.423,150.945 117.623,151.278 117.289 C 151.648 116.920,150.683 117.182,148.179 118.131 M142.776 120.016 C 141.939 120.330,140.057 120.908,138.593 121.299 C 137.129 121.691,136.274 122.019,136.692 122.028 C 137.110 122.037,138.308 121.805,139.354 121.513 C 142.035 120.764,145.548 119.447,144.867 119.446 C 144.553 119.446,143.612 119.702,142.776 120.016 M87.833 122.212 C 87.833 122.753,96.826 124.891,97.925 124.612 C 98.490 124.468,98.424 124.412,97.647 124.379 C 96.321 124.321,92.228 123.369,90.137 122.632 C 88.469 122.043,87.833 121.927,87.833 122.212 M133.650 122.433 L 132.890 122.760 133.650 122.760 C 134.068 122.760,134.753 122.613,135.171 122.433 L 135.932 122.107 135.171 122.107 C 134.753 122.107,134.068 122.254,133.650 122.433 M129.658 123.403 C 128.536 123.724,128.274 123.894,128.897 123.895 C 129.420 123.895,130.532 123.670,131.369 123.395 C 133.323 122.751,131.911 122.758,129.658 123.403 M122.624 124.576 C 118.988 125.147,105.877 125.407,101.331 124.998 C 98.943 124.783,98.845 124.799,100.380 125.153 C 104.690 126.150,126.504 125.318,127.725 124.111 C 127.990 123.849,126.221 124.010,122.624 124.576 M174.525 130.260 C 172.302 131.838,162.337 137.505,158.809 139.198 C 156.984 140.073,155.564 140.862,155.653 140.951 C 156.125 141.423,176.426 130.162,176.426 129.428 C 176.426 129.086,175.780 129.368,174.525 130.260 M216.139 146.768 C 216.139 153.356,216.191 156.050,216.254 152.757 C 216.317 149.463,216.317 144.073,216.254 140.779 C 216.191 137.486,216.139 140.181,216.139 146.768 M149.144 143.440 C 146.164 144.712,143.789 145.817,143.867 145.895 C 144.030 146.058,152.516 142.615,154.204 141.701 C 156.435 140.494,154.450 141.176,149.144 143.440 M73.056 143.905 C 73.389 144.238,78.422 146.039,78.580 145.882 C 78.665 145.796,77.522 145.276,76.038 144.726 C 73.375 143.739,72.706 143.555,73.056 143.905 M81.538 146.986 C 82.990 147.494,84.445 147.892,84.770 147.871 C 85.095 147.850,84.078 147.424,82.510 146.923 C 78.817 145.743,78.111 145.790,81.538 146.986 M142.103 146.236 C 141.977 146.362,140.109 146.949,137.952 147.540 C 135.795 148.132,134.288 148.628,134.603 148.642 C 135.256 148.673,141.150 147.058,142.586 146.455 C 143.146 146.219,143.289 146.046,142.934 146.032 C 142.603 146.018,142.229 146.111,142.103 146.236 M86.122 148.289 C 86.540 148.469,87.139 148.616,87.452 148.616 C 87.812 148.616,87.742 148.495,87.262 148.289 C 86.844 148.109,86.245 147.962,85.932 147.962 C 85.572 147.962,85.642 148.083,86.122 148.289 M89.163 149.049 C 89.582 149.229,90.352 149.371,90.875 149.365 L 91.825 149.354 90.875 149.049 C 90.352 148.882,89.582 148.740,89.163 148.734 L 88.403 148.723 89.163 149.049 M130.989 149.049 L 129.848 149.340 130.989 149.347 C 131.616 149.351,132.557 149.217,133.080 149.049 L 134.030 148.745 133.080 148.752 C 132.557 148.756,131.616 148.890,130.989 149.049 M94.677 149.977 C 96.245 150.260,99.325 150.584,101.521 150.697 L 105.513 150.902 100.951 150.400 C 92.274 149.445,91.408 149.387,94.677 149.977 M126.426 149.682 C 126.008 149.764,123.441 150.072,120.722 150.367 C 116.189 150.858,116.083 150.886,119.446 150.704 C 123.299 150.495,130.808 149.523,128.517 149.530 C 127.785 149.532,126.844 149.600,126.426 149.682 M110.747 151.223 C 111.325 151.311,112.180 151.308,112.648 151.218 C 113.115 151.128,112.643 151.056,111.597 151.059 C 110.551 151.062,110.169 151.136,110.747 151.223 M216.288 185.551 C 216.164 200.295,215.939 212.737,215.786 213.200 C 215.633 213.664,213.945 215.375,212.036 217.002 C 190.533 235.338,158.997 267.705,150.063 280.608 C 148.169 283.345,149.677 281.558,154.237 275.665 C 163.727 263.400,189.777 236.958,208.462 220.625 C 212.384 217.196,215.800 214.019,216.053 213.564 C 216.492 212.774,217.047 163.639,216.657 160.076 C 216.577 159.344,216.411 170.808,216.288 185.551 M325.204 171.293 C 325.207 172.338,325.281 172.721,325.368 172.143 C 325.455 171.565,325.453 170.710,325.363 170.242 C 325.272 169.774,325.201 170.247,325.204 171.293 M297.529 172.646 C 291.345 177.262,286.973 180.730,281.695 185.204 C 278.717 187.727,275.939 190.032,275.521 190.325 C 275.103 190.617,274.836 190.933,274.929 191.025 C 275.021 191.117,278.689 188.199,283.081 184.541 C 287.472 180.882,293.203 176.334,295.817 174.434 C 301.224 170.504,301.435 170.336,300.932 170.358 C 300.733 170.367,299.202 171.396,297.529 172.646 M301.947 170.774 C 302.286 171.059,303.618 172.695,304.908 174.408 C 309.353 180.312,312.986 182.160,317.854 180.993 C 321.183 180.194,325.125 176.241,325.087 173.739 C 325.082 173.439,324.730 173.964,324.305 174.905 C 320.326 183.705,311.757 182.902,304.292 173.031 C 303.276 171.686,302.193 170.512,301.887 170.421 C 301.457 170.293,301.471 170.373,301.947 170.774 M269.952 194.921 C 267.553 196.937,264.648 199.402,263.498 200.398 C 262.348 201.393,257.259 205.740,252.189 210.057 C 246.502 214.900,242.907 218.228,242.802 218.744 C 242.132 222.070,242.547 248.861,243.356 254.536 C 243.629 256.447,243.653 256.191,243.499 253.042 C 242.668 236.145,242.687 218.720,243.536 217.935 C 243.745 217.742,249.990 212.408,257.414 206.081 C 274.166 191.807,274.761 191.292,274.515 191.271 C 274.405 191.262,272.352 192.905,269.952 194.921 M213.274 243.587 C 211.933 244.777,209.125 247.321,207.034 249.240 C 204.943 251.159,201.265 254.510,198.861 256.688 C 175.228 278.092,156.101 302.214,153.814 313.498 C 153.687 314.125,153.994 313.612,154.496 312.357 C 160.770 296.671,175.880 277.961,199.592 256.518 C 202.400 253.979,207.175 249.627,210.204 246.848 C 213.459 243.861,215.850 241.934,216.052 242.136 C 216.240 242.324,216.529 244.854,216.696 247.760 C 216.989 252.899,216.998 252.939,217.021 249.240 C 217.070 241.051,216.721 240.525,213.274 243.587 M217.241 256.084 C 217.242 257.757,217.309 258.394,217.389 257.499 C 217.469 256.605,217.468 255.236,217.387 254.458 C 217.305 253.679,217.239 254.411,217.241 256.084 M243.810 262.225 C 243.759 265.485,243.427 269.358,242.966 272.053 C 242.548 274.500,242.230 277.554,242.260 278.840 C 242.309 280.976,242.339 280.882,242.603 277.757 C 242.761 275.875,243.170 272.867,243.510 271.073 C 243.950 268.750,244.094 266.232,244.011 262.327 L 243.894 256.844 243.810 262.225 M217.730 263.118 C 217.839 265.314,218.250 268.650,218.644 270.532 C 219.038 272.414,219.425 274.553,219.505 275.285 C 219.650 276.612,219.650 276.611,219.705 275.095 C 219.736 274.259,219.491 272.462,219.161 271.103 C 218.832 269.743,218.330 266.492,218.047 263.878 L 217.533 259.125 217.730 263.118 M219.462 278.897 C 219.391 281.023,219.060 284.336,218.416 289.354 C 218.269 290.504,218.247 291.355,218.368 291.244 C 218.805 290.847,219.810 281.498,219.676 279.084 L 219.538 276.616 219.462 278.897 M146.853 285.076 C 145.024 287.807,143.478 290.428,143.994 289.924 C 144.334 289.592,147.667 284.668,148.434 283.365 C 149.270 281.946,148.106 283.205,146.853 285.076 M241.666 285.871 C 241.512 287.615,241.469 289.125,241.571 289.226 C 241.821 289.476,242.333 283.840,242.117 283.205 C 242.023 282.927,241.820 284.127,241.666 285.871 M240.380 295.089 C 239.900 298.048,239.575 300.538,239.659 300.622 C 239.889 300.853,241.534 291.037,241.384 290.325 C 241.313 289.986,240.861 292.130,240.380 295.089 M141.466 293.880 C 138.369 299.292,133.440 310.753,133.978 311.291 C 134.059 311.372,134.767 309.689,135.552 307.552 C 137.230 302.985,139.131 298.874,141.816 294.011 C 142.884 292.077,143.678 290.494,143.580 290.494 C 143.483 290.494,142.531 292.018,141.466 293.880 M217.923 292.395 C 217.888 292.918,217.772 293.774,217.665 294.297 L 217.469 295.247 217.877 294.311 C 218.102 293.796,218.218 292.941,218.135 292.410 L 217.985 291.445 217.923 292.395 M217.198 296.578 C 217.198 297.310,217.277 297.609,217.372 297.243 C 217.468 296.877,217.468 296.279,217.372 295.913 C 217.277 295.547,217.198 295.846,217.198 296.578 M216.409 301.236 C 216.176 302.961,215.898 304.800,215.792 305.323 C 215.685 305.846,215.837 305.562,216.130 304.691 C 216.677 303.066,217.344 298.099,217.015 298.099 C 216.914 298.099,216.641 299.510,216.409 301.236 M238.406 303.698 C 237.098 307.584,237.115 307.518,237.608 306.844 C 238.099 306.175,239.620 301.471,239.413 301.264 C 239.336 301.186,238.882 302.282,238.406 303.698 M214.458 308.831 C 213.593 311.235,210.894 316.890,208.954 320.365 C 208.221 321.678,208.142 321.957,208.690 321.293 C 210.362 319.266,215.991 307.119,215.491 306.619 C 215.396 306.524,214.931 307.519,214.458 308.831 M236.384 309.027 C 234.688 312.958,232.349 319.168,232.505 319.324 C 232.602 319.421,232.802 319.177,232.948 318.781 C 233.095 318.385,234.120 315.760,235.228 312.949 C 237.071 308.267,237.847 305.635,236.384 309.027 M132.705 315.374 C 132.249 317.375,131.948 319.227,132.036 319.488 C 132.124 319.748,132.319 319.278,132.469 318.441 C 132.618 317.605,133.006 315.839,133.329 314.518 C 133.652 313.197,133.831 312.031,133.725 311.926 C 133.620 311.821,133.161 313.372,132.705 315.374 M153.069 315.807 C 152.929 316.364,152.888 316.893,152.978 316.983 C 153.067 317.072,153.255 316.690,153.395 316.133 C 153.535 315.575,153.576 315.046,153.486 314.956 C 153.397 314.867,153.209 315.249,153.069 315.807 M152.184 319.619 C 151.924 320.879,151.727 322.326,151.747 322.837 C 151.766 323.347,152.024 322.567,152.319 321.103 C 152.614 319.639,152.810 318.191,152.756 317.885 C 152.701 317.580,152.444 318.360,152.184 319.619 M230.205 323.672 C 219.553 345.683,205.003 362.602,191.356 368.844 C 189.844 369.535,188.670 370.166,188.749 370.244 C 189.368 370.864,198.387 365.519,202.999 361.799 C 211.665 354.810,222.886 339.449,230.305 324.418 C 231.470 322.059,232.347 320.052,232.253 319.959 C 232.160 319.866,231.239 321.537,230.205 323.672 M131.449 322.433 C 131.304 323.584,131.207 325.466,131.234 326.616 C 131.272 328.240,131.357 327.900,131.612 325.095 C 131.978 321.077,131.861 319.168,131.449 322.433 M203.903 328.266 C 197.041 338.631,190.334 344.506,182.081 347.378 C 180.388 347.968,179.175 348.508,179.387 348.579 C 180.009 348.786,185.593 346.504,187.979 345.068 C 195.088 340.787,202.756 332.254,207.559 323.279 C 208.612 321.312,207.533 322.784,203.903 328.266 M151.197 326.331 C 150.893 328.861,150.919 332.083,151.258 333.991 C 151.411 334.851,151.521 333.139,151.521 329.903 C 151.521 323.598,151.523 323.618,151.197 326.331 M131.201 334.062 C 131.213 335.509,131.366 337.376,131.541 338.213 C 131.749 339.205,131.789 338.346,131.657 335.741 C 131.422 331.143,131.169 330.207,131.201 334.062 M151.737 336.350 C 151.711 337.161,152.466 339.678,152.672 339.468 C 152.734 339.405,152.555 338.498,152.273 337.452 C 151.992 336.407,151.751 335.911,151.737 336.350 M152.852 340.122 C 152.852 342.275,161.419 349.455,163.949 349.423 C 164.224 349.420,163.243 348.830,161.769 348.113 C 158.563 346.553,155.983 344.367,154.323 341.806 C 153.171 340.028,152.852 339.662,152.852 340.122 M131.968 340.875 C 131.865 344.107,135.679 354.599,138.478 358.785 C 142.492 364.785,154.147 372.775,158.638 372.605 C 158.906 372.595,157.842 372.108,156.274 371.523 C 143.197 366.644,137.024 359.541,133.273 345.057 C 132.569 342.338,131.982 340.456,131.968 340.875 M176.426 349.049 L 175.475 349.354 176.426 349.365 C 176.949 349.371,177.719 349.229,178.137 349.049 L 178.897 348.723 178.137 348.734 C 177.719 348.740,176.949 348.882,176.426 349.049 M165.476 349.867 C 166.601 350.185,172.849 350.175,174.335 349.852 C 174.962 349.716,173.029 349.608,170.039 349.612 C 167.048 349.616,164.995 349.731,165.476 349.867 M184.316 371.400 C 182.487 371.934,181.061 372.442,181.147 372.528 C 181.362 372.744,185.560 371.645,187.123 370.963 C 188.969 370.157,188.111 370.291,184.316 371.400 M160.266 373.004 C 160.894 373.163,161.835 373.294,162.357 373.294 C 163.205 373.294,163.185 373.263,162.167 373.004 C 161.540 372.844,160.599 372.714,160.076 372.714 C 159.228 372.714,159.249 372.745,160.266 373.004 M176.806 373.004 C 174.906 373.404,176.855 373.420,179.087 373.023 C 180.631 372.749,180.668 372.719,179.468 372.721 C 178.736 372.723,177.538 372.850,176.806 373.004 M166.463 373.667 C 168.198 373.738,170.936 373.737,172.547 373.666 C 174.157 373.595,172.738 373.537,169.392 373.538 C 166.046 373.538,164.728 373.597,166.463 373.667 " stroke="none" fill="#747474" fill-rule="evenodd"></path><path id="path4" d="M237.262 1.640 C 237.262 1.705,237.818 2.261,238.498 2.876 L 239.734 3.992 238.617 2.757 C 237.576 1.605,237.262 1.346,237.262 1.640 M242.327 20.913 C 242.327 22.272,242.396 22.828,242.480 22.148 C 242.565 21.469,242.565 20.356,242.480 19.677 C 242.396 18.997,242.327 19.553,242.327 20.913 M242.689 29.658 C 242.689 30.599,242.763 30.984,242.854 30.513 C 242.945 30.043,242.945 29.273,242.854 28.802 C 242.763 28.332,242.689 28.717,242.689 29.658 M243.854 64.259 C 243.854 65.827,243.921 66.469,244.003 65.684 C 244.085 64.900,244.085 63.617,244.003 62.833 C 243.921 62.048,243.854 62.690,243.854 64.259 M243.455 77.757 C 243.458 78.802,243.531 79.185,243.619 78.607 C 243.706 78.029,243.704 77.173,243.614 76.706 C 243.523 76.238,243.452 76.711,243.455 77.757 M216.298 85.460 C 215.834 86.052,215.847 86.069,216.413 85.626 C 216.950 85.206,217.074 85.235,217.225 85.816 C 217.379 86.412,217.408 86.418,217.446 85.859 C 217.511 84.915,216.893 84.701,216.298 85.460 M217.219 89.544 C 217.222 90.589,217.296 90.972,217.383 90.394 C 217.471 89.816,217.468 88.961,217.378 88.493 C 217.288 88.025,217.216 88.498,217.219 89.544 M243.114 95.247 C 243.114 97.966,243.175 99.028,243.248 97.608 C 243.321 96.187,243.321 93.963,243.247 92.665 C 243.173 91.366,243.113 92.529,243.114 95.247 M179.457 98.764 L 176.996 101.331 179.563 98.870 C 181.947 96.585,182.303 96.198,182.023 96.198 C 181.965 96.198,180.810 97.353,179.457 98.764 M365.779 100.119 C 365.779 100.184,366.336 100.740,367.015 101.355 L 368.251 102.471 367.134 101.236 C 366.093 100.084,365.779 99.825,365.779 100.119 M344.659 108.460 L 343.156 110.076 344.772 108.573 C 345.661 107.746,346.388 107.019,346.388 106.957 C 346.388 106.669,346.057 106.957,344.659 108.460 M216.848 110.456 C 216.850 111.711,216.921 112.178,217.006 111.495 C 217.090 110.812,217.088 109.785,217.002 109.214 C 216.915 108.642,216.846 109.202,216.848 110.456 M242.699 111.027 C 242.699 112.177,242.771 112.647,242.858 112.072 C 242.945 111.497,242.945 110.556,242.858 109.981 C 242.771 109.406,242.699 109.876,242.699 111.027 M195.057 113.878 C 194.133 114.819,193.463 115.589,193.568 115.589 C 193.672 115.589,194.514 114.819,195.437 113.878 C 196.361 112.937,197.031 112.167,196.926 112.167 C 196.822 112.167,195.981 112.937,195.057 113.878 M216.490 123.194 C 216.490 125.390,216.553 126.288,216.630 125.190 C 216.707 124.092,216.707 122.296,216.630 121.198 C 216.553 120.100,216.490 120.998,216.490 123.194 M242.336 123.004 C 242.337 124.677,242.404 125.314,242.484 124.420 C 242.565 123.525,242.563 122.156,242.482 121.378 C 242.400 120.599,242.334 121.331,242.336 123.004 M109.421 125.374 C 110.315 125.454,111.684 125.453,112.463 125.371 C 113.241 125.290,112.510 125.224,110.837 125.225 C 109.163 125.227,108.526 125.294,109.421 125.374 M47.909 128.256 C 47.909 128.321,48.465 128.877,49.144 129.492 L 50.380 130.608 49.263 129.373 C 48.222 128.221,47.909 127.962,47.909 128.256 M350.737 129.373 L 349.620 130.608 350.856 129.492 C 351.535 128.877,352.091 128.321,352.091 128.256 C 352.091 127.962,351.778 128.221,350.737 129.373 M216.078 133.270 C 216.081 134.316,216.155 134.698,216.242 134.120 C 216.330 133.542,216.327 132.687,216.237 132.219 C 216.147 131.751,216.075 132.224,216.078 133.270 M345.794 133.935 L 344.677 135.171 345.913 134.054 C 346.592 133.440,347.148 132.884,347.148 132.819 C 347.148 132.525,346.835 132.783,345.794 133.935 M243.133 147.529 C 243.133 153.279,243.185 155.632,243.250 152.757 C 243.315 149.881,243.315 145.176,243.250 142.300 C 243.185 139.425,243.133 141.778,243.133 147.529 M340.851 138.498 L 339.734 139.734 340.970 138.617 C 341.649 138.003,342.205 137.447,342.205 137.381 C 342.205 137.088,341.892 137.346,340.851 138.498 M105.798 151.228 C 106.583 151.310,107.866 151.310,108.650 151.228 C 109.434 151.146,108.793 151.078,107.224 151.078 C 105.656 151.078,105.014 151.146,105.798 151.228 M114.163 151.223 C 114.739 151.310,115.680 151.310,116.255 151.223 C 116.830 151.136,116.359 151.065,115.209 151.065 C 114.059 151.065,113.588 151.136,114.163 151.223 M216.123 164.449 C 216.124 167.795,216.182 169.113,216.253 167.377 C 216.323 165.642,216.323 162.905,216.252 161.294 C 216.181 159.683,216.123 161.103,216.123 164.449 M243.506 181.369 C 243.506 185.656,243.562 187.410,243.630 185.266 C 243.697 183.123,243.697 179.615,243.630 177.471 C 243.562 175.328,243.506 177.082,243.506 181.369 M216.073 204.183 C 216.073 205.124,216.147 205.509,216.238 205.038 C 216.329 204.567,216.329 203.798,216.238 203.327 C 216.147 202.856,216.073 203.241,216.073 204.183 M242.707 227.757 C 242.707 229.116,242.776 229.672,242.861 228.992 C 242.945 228.313,242.945 227.201,242.861 226.521 C 242.776 225.841,242.707 226.397,242.707 227.757 M197.698 229.563 L 196.388 230.989 197.814 229.678 C 198.598 228.958,199.240 228.316,199.240 228.252 C 199.240 227.962,198.918 228.236,197.698 229.563 M243.069 242.966 C 243.069 243.907,243.143 244.292,243.234 243.821 C 243.325 243.351,243.325 242.581,243.234 242.110 C 243.143 241.640,243.069 242.025,243.069 242.966 M213.094 244.202 L 211.977 245.437 213.213 244.320 C 214.365 243.280,214.623 242.966,214.330 242.966 C 214.264 242.966,213.708 243.522,213.094 244.202 M216.446 246.578 C 216.450 247.414,216.528 247.712,216.619 247.239 C 216.710 246.766,216.706 246.082,216.611 245.718 C 216.516 245.354,216.441 245.741,216.446 246.578 M208.345 248.574 L 207.034 250.000 208.460 248.690 C 209.787 247.470,210.061 247.148,209.770 247.148 C 209.707 247.148,209.065 247.790,208.345 248.574 M172.618 254.278 L 167.490 259.506 172.719 254.378 C 175.594 251.558,177.947 249.205,177.947 249.150 C 177.947 248.877,177.382 249.421,172.618 254.278 M243.434 251.331 C 243.434 252.063,243.512 252.362,243.608 251.996 C 243.704 251.630,243.704 251.031,243.608 250.665 C 243.512 250.299,243.434 250.599,243.434 251.331 M196.177 259.601 L 194.867 261.027 196.293 259.716 C 197.620 258.497,197.893 258.175,197.603 258.175 C 197.540 258.175,196.898 258.817,196.177 259.601 M184.972 270.437 L 181.939 273.574 185.076 270.541 C 186.801 268.873,188.213 267.462,188.213 267.404 C 188.213 267.127,187.789 267.524,184.972 270.437 M242.294 282.129 C 242.294 282.861,242.372 283.161,242.467 282.795 C 242.563 282.429,242.563 281.830,242.467 281.464 C 242.372 281.098,242.294 281.397,242.294 282.129 M130.936 330.038 C 130.936 332.025,131.000 332.837,131.078 331.844 C 131.156 330.851,131.156 329.225,131.078 328.232 C 131.000 327.239,130.936 328.051,130.936 330.038 M151.461 329.848 C 151.463 331.521,151.529 332.158,151.610 331.264 C 151.690 330.369,151.689 329.001,151.607 328.222 C 151.525 327.443,151.460 328.175,151.461 329.848 M206.844 358.365 C 205.921 359.306,205.250 360.076,205.355 360.076 C 205.460 360.076,206.301 359.306,207.224 358.365 C 208.148 357.424,208.818 356.654,208.713 356.654 C 208.609 356.654,207.768 357.424,206.844 358.365 M167.976 374.043 C 168.870 374.123,170.239 374.122,171.018 374.041 C 171.796 373.959,171.065 373.893,169.392 373.895 C 167.719 373.896,167.082 373.963,167.976 374.043 " stroke="none" fill="#7c7c7c" fill-rule="evenodd"></path></g></svg>